HIERARCHY
ROOT Pelvis
{
	OFFSET 0.000000 0.000000 0.000000
	CHANNELS 6 Xposition Yposition Zposition Xrotation Yrotation Zrotation
	JOINT LeftUpLeg_virtual
	{
		OFFSET 0.000000 0.000000 0.000000
		CHANNELS 3 Xrotation Yrotation Zrotation
		JOINT LeftUpLeg
		{
			OFFSET 18.735201 -5.666702 -4.541200
			CHANNELS 3 Xrotation Yrotation Zrotation
			JOINT LeftLeg
			{
				OFFSET -0.021200 -31.938179 0.493100
				CHANNELS 3 Xrotation Yrotation Zrotation
				JOINT LeftFoot
				{
					OFFSET 0.021200 -31.938179 -4.336299
					CHANNELS 3 Xrotation Yrotation Zrotation
					JOINT LeftToeBase
					{
						OFFSET 0.943001 -26.722000 15.023500
						CHANNELS 3 Xrotation Yrotation Zrotation
						End Site
						{
							OFFSET 0 0 0
						}
					}
				}
			}
		}
	}
	JOINT RightUpLeg_virtual
	{
		OFFSET 0.000000 0.000000 0.000000
		CHANNELS 3 Xrotation Yrotation Zrotation
		JOINT RightUpLeg
		{
			OFFSET -18.735201 -5.666702 -4.541200
			CHANNELS 3 Xrotation Yrotation Zrotation
			JOINT RightLeg
			{
				OFFSET 0.018946 -31.938133 0.493100
				CHANNELS 3 Xrotation Yrotation Zrotation
				JOINT RightFoot
				{
					OFFSET -0.018946 -31.938126 -4.336299
					CHANNELS 3 Xrotation Yrotation Zrotation
					JOINT RightToeBase
					{
						OFFSET -0.943001 -26.722004 15.023500
						CHANNELS 3 Xrotation Yrotation Zrotation
						End Site
						{
							OFFSET 0 0 0
						}
					}
				}
			}
		}
	}
	JOINT Hips_virtual
	{
		OFFSET 0.000000 0.000000 0.000000
		CHANNELS 3 Xrotation Yrotation Zrotation
		JOINT Hips
		{
			OFFSET -0.000000 -0.000000 -0.000000
			CHANNELS 3 Xrotation Yrotation Zrotation
			JOINT Spine
			{
				OFFSET 0.000000 10.199997 -0.299500
				CHANNELS 3 Xrotation Yrotation Zrotation
				JOINT Spine1
				{
					OFFSET 0.000000 11.900002 -1.516600
					CHANNELS 3 Xrotation Yrotation Zrotation
					JOINT Spine2
					{
						OFFSET 0.000000 13.600006 -2.842500
						CHANNELS 3 Xrotation Yrotation Zrotation
						JOINT Neck_virtual
						{
							OFFSET 0.000000 0.000000 0.000000
							CHANNELS 3 Xrotation Yrotation Zrotation
							JOINT Neck
							{
								OFFSET 0.000000 9.624100 -2.890100
								CHANNELS 3 Xrotation Yrotation Zrotation
								JOINT Head
								{
									OFFSET 0.000000 14.068802 -1.351900
									CHANNELS 3 Xrotation Yrotation Zrotation
									End Site
									{
										OFFSET 0 0 0
									}
								}
							}
						}
						JOINT LeftShoulder_virtual
						{
							OFFSET 0.000000 0.000000 0.000000
							CHANNELS 3 Xrotation Yrotation Zrotation
							JOINT LeftShoulder
							{
								OFFSET 15.263000 10.923401 -0.547700
								CHANNELS 3 Xrotation Yrotation Zrotation
								JOINT LeftArm
								{
									OFFSET 25.438599 -2.830597 -13.032500
									CHANNELS 3 Xrotation Yrotation Zrotation
									JOINT LeftForeArm
									{
										OFFSET 29.960503 0.000000 0.000000
										CHANNELS 3 Xrotation Yrotation Zrotation
										JOINT LeftHand
										{
											OFFSET 27.849251 0.000000 0.000000
											CHANNELS 3 Xrotation Yrotation Zrotation
											End Site
											{
												OFFSET 0 0 0
											}
										}
									}
								}
							}
						}
						JOINT RightShoulder_virtual
						{
							OFFSET 0.000000 0.000000 0.000000
							CHANNELS 3 Xrotation Yrotation Zrotation
							JOINT RightShoulder
							{
								OFFSET -15.263000 10.923401 -0.547700
								CHANNELS 3 Xrotation Yrotation Zrotation
								JOINT RightArm
								{
									OFFSET -25.438599 -2.830597 -13.032500
									CHANNELS 3 Xrotation Yrotation Zrotation
									JOINT RightForeArm
									{
										OFFSET -29.960503 0.000000 0.000000
										CHANNELS 3 Xrotation Yrotation Zrotation
										JOINT RightHand
										{
											OFFSET -27.849251 0.000000 0.000000
											CHANNELS 3 Xrotation Yrotation Zrotation
											End Site
											{
												OFFSET 0 0 0
											}
										}
									}
								}
							}
						}
					}
				}
			}
		}
	}
}
MOTION
Frames: 5
Frame Time: 0.03333333
-4.772043 73.392685 -38.594460 0.000000 0.000000 0.000000 64.255401 -87.133379 63.199727 -57.232757 -5.001809 33.147526 83.141584 3.024584 9.254326 -17.995248 -0.898838 -38.962370 0.000000 0.000000 0.000000 59.332576 -87.045208 57.801821 -74.095231 12.995861 -26.160678 99.679180 20.352972 4.001745 -35.654158 9.678598 2.093848 0.000000 0.000000 0.000000 46.258440 -85.679532 44.950336 -0.742681 -0.049922 -0.066370 3.708161 7.373972 -6.934854 14.555294 10.420041 -7.785916 0.000000 0.000000 0.000000 14.330080 13.566020 -6.866205 4.223586 1.783519 1.660917 0.000000 0.000000 0.000000 16.013677 12.694126 -7.880150 -9.573724 -3.363431 4.010175 -46.643126 -36.765727 -40.955341 38.744627 -77.362431 32.547409 0.000000 0.000000 0.000000 9.437407 14.009701 -7.038625 8.583413 17.137223 -10.602878 -53.518453 -4.879672 34.443479 10.442198 47.005037 -7.488834 0.000000 0.000000 0.000000 
-4.688237 73.585999 -39.211723 0.000000 0.000000 0.000000 61.940363 -83.254624 60.186309 -65.012363 -6.512432 34.682837 84.998378 2.325195 8.487027 -13.480242 -2.554410 -40.555618 0.000000 0.000000 0.000000 61.938990 -83.525099 59.849772 -75.333647 10.615483 -25.332840 97.979262 19.064516 5.834556 -34.844866 7.451315 -1.911879 0.000000 0.000000 0.000000 60.220337 -82.497941 58.148317 -0.709806 -0.072622 -0.094899 5.080092 7.392514 -8.288949 14.199034 10.280276 -7.235636 0.000000 0.000000 0.000000 14.478406 13.383351 -6.487715 4.309587 2.390280 1.252971 0.000000 0.000000 0.000000 15.683327 12.619760 -7.279120 -9.332840 -3.180483 2.581578 -37.546772 -27.983186 -40.982890 31.398455 -72.169445 25.917416 0.000000 0.000000 0.000000 9.190950 13.835621 -6.555159 7.667432 16.970582 -7.719613 -49.460115 -10.124315 34.157243 10.291487 46.602121 -3.181803 0.000000 0.000000 0.000000 
-4.554469 74.346291 -39.659821 0.000000 0.000000 0.000000 60.558581 -79.401270 58.246556 -70.444788 -7.613299 35.062421 84.300087 0.837147 8.162303 -11.172829 -4.468265 -41.826945 0.000000 0.000000 0.000000 61.591586 -79.934537 59.118026 -75.950297 8.928434 -24.456370 95.754826 17.333453 7.095404 -33.846169 5.319519 -5.158297 0.000000 0.000000 0.000000 63.916739 -79.089001 61.356327 -0.693966 -0.121247 -0.125533 6.199289 7.564105 -9.122626 13.869151 10.238421 -6.511674 0.000000 0.000000 0.000000 14.333092 13.323976 -5.853360 4.256964 3.004555 0.870345 0.000000 0.000000 0.000000 15.319981 12.652621 -6.435702 -8.895659 -2.692098 1.921580 -28.317266 -19.829774 -41.842063 22.563677 -65.067510 18.176168 0.000000 0.000000 0.000000 9.305825 13.675472 -6.013428 6.721633 16.027295 -4.702132 -43.751497 -16.313432 35.305050 9.717562 47.256505 0.936790 0.000000 0.000000 0.000000 
-4.353743 75.333344 -39.802109 0.000000 0.000000 0.000000 58.877446 -75.876408 56.203991 -72.989416 -8.008241 34.528269 81.195595 -1.195983 8.204231 -10.950309 -6.251078 -42.632880 0.000000 0.000000 0.000000 59.694084 -76.530330 57.026274 -75.478761 8.547610 -23.219255 93.080732 15.189622 7.316471 -32.784164 3.749659 -7.154460 0.000000 0.000000 0.000000 62.944196 -75.876729 60.167758 -0.718355 -0.149343 -0.129985 7.046051 7.872266 -9.424292 13.563506 10.225835 -5.709299 0.000000 0.000000 0.000000 13.881734 13.259721 -5.061317 4.099465 3.607478 0.547222 0.000000 0.000000 0.000000 14.928396 12.666253 -5.416275 -8.353928 -2.282529 1.607319 -19.392983 -13.665189 -44.779352 15.189979 -57.027780 12.049444 0.000000 0.000000 0.000000 9.743280 13.468741 -5.440868 5.914607 14.674214 -1.698353 -36.241079 -22.465366 38.508378 8.742292 48.145939 4.668370 0.000000 0.000000 0.000000 
-4.020784 76.251465 -39.639641 0.000000 0.000000 0.000000 56.407565 -73.022953 53.578791 -73.294337 -7.465798 33.248623 77.210569 -2.790324 7.966290 -11.211628 -7.323899 -42.020977 0.000000 0.000000 0.000000 56.563877 -73.482454 53.874572 -73.449860 8.965399 -21.934777 89.883896 12.685272 6.707563 -32.222637 2.690520 -7.682711 0.000000 0.000000 0.000000 59.295249 -73.032406 56.481706 -0.769638 -0.139098 -0.148652 7.626741 8.242292 -9.175676 13.192570 10.157769 -4.948522 0.000000 0.000000 0.000000 13.164905 13.083714 -4.269096 3.906411 4.160877 0.307950 0.000000 0.000000 0.000000 14.593372 12.575064 -4.402895 -7.812190 -2.265908 1.280631 -11.766498 -9.714295 -49.777842 9.786557 -49.464933 7.831119 0.000000 0.000000 0.000000 10.296777 13.163579 -4.895395 5.324856 13.209648 1.118352 -27.885267 -26.972192 43.083269 7.487139 48.289779 7.957751 0.000000 0.000000 0.000000 
